<svg version="1.1" id="Layer_1" xmlns="http://www.w3.org/2000/svg" xmlns:xlink="http://www.w3.org/1999/xlink" x="0px" y="0px"
	 width="32px" height="32px" viewBox="0 0 32 32" enable-background="new 0 0 32 32" xml:space="preserve">
<path id="search-icon" fill="#FFFFFF" d="M3.598,3.602c-4.789,4.803-4.801,12.671-0.012,17.474
	c4.058,4.069,10.316,4.69,15.044,1.861l8.45,8.24c1.163,1.132,2.998,1.09,4.108-0.094c1.11-1.184,1.081-3.046-0.082-4.178
	l-8.321-8.088c2.918-4.756,2.325-11.105-1.774-15.216C16.221-1.201,8.387-1.201,3.598,3.602L3.598,3.602z M7.111,7.125
	c2.889-2.897,7.498-2.897,10.387,0c2.889,2.897,2.889,7.52,0,10.417c-2.889,2.897-7.498,2.897-10.387,0
	C4.222,14.645,4.222,10.023,7.111,7.125z"/>
</svg>
